<svg xmlns="http://www.w3.org/2000/svg" width="16" height="16" fill="none"><g fill="#352958" clip-path="url(#a)"><path d="M14.354 4.844c-.033-.76-.161-1.175-.268-1.45a2.429 2.429 0 0 0-.583-.897 2.403 2.403 0 0 0-.897-.583c-.275-.106-.687-.234-1.45-.268-.82-.037-1.067-.046-3.154-.046-2.084 0-2.332.01-3.155.046-.76.034-1.175.162-1.45.268a2.425 2.425 0 0 0-.897.583c-.262.25-.46.559-.586.898-.107.274-.235.686-.268 1.45C1.609 5.664 1.6 5.914 1.6 8s.009 2.332.046 3.156c.033.76.161 1.175.268 1.45.125.338.324.644.583.897.25.26.558.458.897.583.275.107.687.235 1.45.268.82.037 1.07.046 3.155.046 2.084 0 2.33-.01 3.155-.046.76-.033 1.174-.161 1.449-.268a2.592 2.592 0 0 0 1.483-1.484c.107-.274.235-.686.268-1.45.037-.823.046-1.067.046-3.152 0-2.084-.01-2.332-.046-3.156Zm-6.358 7.163a4.014 4.014 0 0 1 0-8.026 4.014 4.014 0 0 1 0 8.026Zm4.17-7.248a.937.937 0 1 1 .001-1.874.937.937 0 0 1 0 1.874Z"/><path d="M9.836 9.835a2.604 2.604 0 1 0-3.683-3.682 2.604 2.604 0 0 0 3.683 3.682Z"/></g></svg>