<svg xmlns="http://www.w3.org/2000/svg" width="16" height="16" fill="none"><g clip-path="url(#a)"><path fill="#352958" fill-rule="evenodd" d="M13.77 9.23c.53.518 1.091 1.006 1.567 1.576.21.254.41.515.562.81.216.418.02.878-.355.903l-2.33-.001c-.602.05-1.082-.193-1.485-.604-.323-.328-.621-.678-.932-1.018a2.208 2.208 0 0 0-.42-.373c-.317-.206-.594-.143-.775.189-.186.337-.228.711-.246 1.087-.025.55-.19.694-.742.719-1.178.055-2.297-.123-3.335-.718-.916-.524-1.626-1.263-2.245-2.1C1.831 8.068.91 6.276.081 4.433c-.187-.415-.05-.637.408-.645.76-.015 1.52-.014 2.282-.001.309.004.513.181.633.473A14.146 14.146 0 0 0 4.95 7.128c.169.237.34.475.584.642.27.185.477.124.604-.178.08-.19.116-.396.134-.6.06-.704.068-1.407-.038-2.108-.064-.437-.31-.72-.747-.803-.223-.042-.19-.125-.082-.252.187-.22.363-.356.715-.356h2.634c.415.082.507.268.564.685l.002 2.926c-.005.162.08.641.371.748.233.076.387-.11.527-.258.63-.67 1.08-1.46 1.483-2.28.178-.36.332-.734.48-1.107.11-.278.283-.414.596-.408l2.535.002c.075 0 .151.001.224.014.427.072.545.256.412.673-.207.655-.612 1.2-1.007 1.748-.423.585-.876 1.15-1.295 1.739-.385.537-.354.808.124 1.275Z" clip-rule="evenodd"/></g>></svg>